<svg width="149" height="162" viewBox="0 0 149 162" fill="none" xmlns="http://www.w3.org/2000/svg">
<g clip-path="url(#clip0_23_3)">
<path d="M143.631 52.8542C143.845 63.7127 139.707 73.1474 133.135 82.8553C139.593 82.0211 143.573 78.253 149 76.484C144.891 99.668 134.094 117.718 112.96 128.49C106.359 131.855 99.2283 133.84 91.8399 134.775C89.9642 135.019 88.0311 135.321 86.3129 136.055C85.1817 136.529 83.7499 137.752 83.6067 138.802C83.1485 142.009 81.3014 144.137 78.8386 145.619C76.2469 147.172 76.2612 149.358 76.3185 151.789C76.3757 153.73 77.2206 154.838 79.1393 155.341C81.8884 156.06 84.6519 156.822 87.2723 157.901C88.0311 158.218 88.3175 159.713 88.8187 160.662C87.8307 161.108 86.8713 161.698 85.8261 161.942C85.2104 162.086 84.4372 161.698 83.7642 161.468C77.5069 159.325 71.2353 159.411 64.9638 161.367C64.0617 161.655 63.0451 162.129 62.2146 161.928C61.2409 161.712 60.2243 160.993 59.6086 160.202C59.4081 159.929 60.2243 158.318 60.8686 158.045C63.3887 157.009 66.0663 156.348 68.658 155.471C72.5813 154.133 73.4977 148.955 70.3333 146.28C67.5268 143.907 65.1499 141.678 64.6344 137.709C64.4913 136.616 62.4294 135.35 61.0118 134.962C58.0622 134.127 54.955 133.883 51.9195 133.279C43.5574 131.625 36.2978 127.526 29.5824 122.521C23.7117 118.149 19.7741 111.965 16.939 105.392C13.6314 97.712 11.8415 89.6005 11.8415 81.0144C11.8415 70.4004 12.6147 59.9734 16.1944 49.9634C17.4974 46.3391 16.2517 43.7791 13.8175 41.7656C11.4549 39.8241 8.60552 38.4865 5.89929 37.0052C4.2956 36.1279 2.5344 35.5238 0 34.4308C3.27897 30.8065 6.09975 27.6999 9.30713 24.1619C8.14732 23.2846 7.33116 22.5655 6.41476 22.0046C2.21939 19.3871 0.758889 15.7053 2.20507 11.1893C3.19306 8.05399 6.35749 5.98296 10.8249 6.47196C13.3164 6.74522 14.6623 6.29937 16.223 4.34341C21.0055 -1.61079 25.8738 -1.4382 30.7278 4.54475C31.1717 5.09127 31.6729 5.58027 32.1024 6.05488C40.6936 4.8324 44.1874 5.9542 45.6909 10.3551C47.2229 14.8855 45.6909 17.9776 39.6197 22.1197C43.6719 27.6136 45.3329 33.9562 46.3495 40.6582C47.452 47.8349 50.4446 54.3931 54.8691 60.1747C60.525 67.5527 68.1712 71.853 77.2062 73.0179C92.8279 75.0171 105.586 69.2355 115.895 57.4565C120.964 51.6749 125.303 45.4762 128.94 37.4798C129.885 48.4389 128.94 58.2763 125.403 68.3006C128.41 68.5163 130.142 67.0494 131.646 65.568C133.607 63.6264 135.483 61.5986 137.345 59.5563C139.421 57.2983 141.54 55.0835 143.659 52.8686L143.631 52.8399V52.8542ZM102.393 102.444C100.231 101.595 98.7558 100.574 97.238 100.502C89.5919 100.128 84.3656 96.1587 80.5138 89.8594C78.5092 86.5803 75.3305 85.1277 71.8081 84.0634C64.0474 81.7335 57.5324 84.2647 52.8931 91.5996C49.0414 97.6832 49.5139 104.371 54.6687 110.081C58.7781 114.625 63.8899 117.415 70.233 117.804C83.5924 118.624 93.3147 112.137 102.393 102.444ZM25.8738 26.9377C25.8309 24.9386 23.0101 22.5655 20.9196 22.7813C18.915 22.997 17.2969 25.1687 17.5547 27.4554C17.7981 29.5696 18.9436 30.9934 21.0914 31.2667C23.1533 31.5256 25.9168 28.9224 25.8738 26.9377Z" fill="white"/>
</g>
<defs>
<clipPath id="clip0_23_3">
<rect width="149" height="162" fill="white"/>
</clipPath>
</defs>
</svg>
