<svg width="134" height="142" viewBox="0 0 134 142" fill="none" xmlns="http://www.w3.org/2000/svg">
<path d="M67 0.602051C30.0742 0.602051 0.15625 32.0607 0.15625 70.888C0.15625 109.715 30.0742 141.174 67 141.174C103.926 141.174 133.844 109.715 133.844 70.888C133.844 32.0607 103.926 0.602051 67 0.602051ZM82.3902 99.8243L58.6176 81.6576C57.782 81.0058 57.2969 79.9855 57.2969 78.9085V31.2104C57.2969 29.3399 58.7523 27.8095 60.5312 27.8095H73.4688C75.2477 27.8095 76.7031 29.3399 76.7031 31.2104V70.2362L93.8184 83.3298C95.2738 84.4351 95.5703 86.5606 94.5191 88.0911L86.9184 99.0874C85.8672 100.589 83.8457 100.93 82.3902 99.8243Z" fill="white"/>
</svg>
