<svg width="175" height="184" viewBox="0 0 175 184" fill="none" xmlns="http://www.w3.org/2000/svg">
<path d="M175 92C175 142.823 135.837 184 87.5 184C39.1633 184 0 142.823 0 92C0 41.1774 39.1633 0 87.5 0C135.837 0 175 41.1774 175 92ZM71.9758 48.9677V92H46.9607C43.1855 92 41.2802 96.8226 43.9617 99.6048L84.501 142.006C86.1593 143.75 88.8054 143.75 90.4637 142.006L131.003 99.6048C133.684 96.7855 131.779 92 128.004 92H103.024V48.9677C103.024 46.5194 101.119 44.5161 98.7903 44.5161H76.2097C73.8811 44.5161 71.9758 46.5194 71.9758 48.9677Z" fill="#ED297B"/>
</svg>
