<?xml version="1.0" encoding="UTF-8"?>
<svg id="Layer_2" data-name="Layer 2" xmlns="http://www.w3.org/2000/svg" viewBox="0 0 414.27 145.88">
  <defs>
    <style>
      .cls-1 {
        fill: #fff;
        stroke-width: 0px;
      }
    </style>
  </defs>
  <g id="Layer_2-2" data-name="Layer 2">
    <g>
      <g>
        <path class="cls-1" d="M0,47.96l31.28-21.31s-.81-15.64,8.73-22.14C49.56-1.99,58.5.45,58.5.45v13.41l9.75-9.34s11.98,8.29,10.36,20.7c-1.63,12.41-6.3,17.08-6.3,17.08,0,0,4.67,5.13,1.02,15.39s-28.64,23.41-17.88,45.96c10.77,22.55,30.88,24.58,44.89,17.88,14.02-6.7,18.28-22.14,19.09-25.59.18-.77.5-1.45.9-2.04,1.33-2.01,3.67-3.12,6.08-3.11l14.62.06s-1.42,55.05-54.81,55.05-55.29-50.92-54.74-54.71v-20.04l23.56-23.16h-8.7l-14.85,14.63v-14.63H0Z"/>
        <path class="cls-1" d="M61.58,76.67s9.55-.41,14.32,4.37c4.77,4.77,5.28,7.31,5.28,7.31,0,0,1.56,7.3,5.04,6.89,2.32-.27,3.78-3.83,4.49-6.17.82-2.69,1.81-5.33,3.09-7.84,1.95-3.85,4.92-8.66,8.61-11.36,6.81-4.98,15.03-8.63,20.72-8.63h17.91v21.45h-11.99c-1.02,0-2.03-.06-3.05-.13-1.94-.14-6.31.03-10.31,3.68-2.86,2.61-4.33,6.46-5.08,9.47-1.41,5.65-4.4,10.82-8.86,14.57-3.92,3.3-9.27,6.14-16.07,6.14-16.18,0-24.55-14.63-24.55-24.55s.44-15.2.44-15.2Z"/>
      </g>
      <g>
        <path class="cls-1" d="M188.65,77.35c-15.13,0-22.7-8.08-22.7-24.24,0-7.66,1.91-13.59,5.73-17.8,3.82-4.21,9.21-6.31,16.16-6.31,3.22,0,6.06.51,8.51,1.52s4.29,2.46,5.51,4.34l-5,5.79c-1.01-1.35-2.3-2.38-3.87-3.11-1.57-.73-3.26-1.09-5.08-1.09-4.05,0-7.31,1.42-9.76,4.26-2.46,2.84-3.68,6.86-3.68,12.07,0,11.41,5.11,17.12,15.34,17.12,3.27,0,6.49-.66,9.66-1.99l1.55,7.18c-3.92,1.5-8.04,2.25-12.36,2.25Z"/>
        <polygon class="cls-1" points="245.06 29.66 245.06 49.6 229.59 49.6 229.59 29.66 221.45 29.66 221.45 76.69 229.59 76.69 229.59 56.95 245.06 56.95 245.06 76.69 253.2 76.69 253.2 29.66 245.06 29.66"/>
        <path class="cls-1" d="M301.48,76.69h8.61l-13.85-47.03h-10.47l-13.85,47.03h8.61l2.67-9.93h15.61l2.67,9.93ZM285.18,59.4l5.52-20.57h.61l5.52,20.57h-11.66Z"/>
        <path class="cls-1" d="M343.65,77.35c-2.72,0-5.33-.22-7.82-.66s-4.75-1.08-6.77-1.92l1.08-8.05c2.48,1.04,4.91,1.83,7.3,2.37s4.64.81,6.76.81c2.7,0,4.75-.47,6.13-1.41s2.08-2.31,2.08-4.12c0-2.36-1.37-4.16-4.12-5.4l-7.46-3.48c-3.36-1.54-5.94-3.45-7.75-5.73-1.81-2.27-2.72-4.89-2.72-7.85,0-4.11,1.33-7.28,4-9.54,2.67-2.25,6.45-3.38,11.33-3.38,3.06,0,5.88.49,8.46,1.47,2.58.98,4.94,2.47,7.08,4.45l-5.57,6.03c-1.74-1.5-3.42-2.63-5.05-3.39-1.63-.76-3.26-1.14-4.88-1.14-2.12,0-3.76.47-4.93,1.41-1.17.94-1.76,2.3-1.76,4.09,0,1.24.4,2.33,1.2,3.26.8.94,1.95,1.78,3.46,2.53l6.72,3.28c3.45,1.68,6.08,3.62,7.92,5.81s2.75,4.73,2.75,7.6c0,4.22-1.48,7.43-4.44,9.64-2.96,2.21-7.29,3.31-12.99,3.31Z"/>
        <polygon class="cls-1" points="414.27 37.02 414.27 29.66 389.99 29.66 381.85 29.66 381.85 37.02 381.85 49.47 381.85 56.82 381.85 69.34 381.85 76.69 389.99 76.69 414.27 76.69 414.27 69.34 389.99 69.34 389.99 56.82 408.19 56.82 408.19 49.47 389.99 49.47 389.99 37.02 414.27 37.02"/>
      </g>
      <g>
        <path class="cls-1" d="M210.43,122.77c-1.78,0-3.45-.13-5-.37-1.55-.25-3.01-.63-4.37-1.14l.5-3.38c1.63.59,3.21,1.04,4.75,1.35,1.53.3,3.03.46,4.49.46,2.34,0,4.08-.36,5.23-1.09s1.72-1.83,1.72-3.29c0-1.9-1.05-3.3-3.15-4.21l-6.61-2.87c-1.96-.84-3.47-1.84-4.51-3.01-1.04-1.17-1.56-2.61-1.56-4.33,0-2.47.82-4.35,2.47-5.66,1.65-1.31,4.02-1.96,7.13-1.96,2.1,0,3.97.28,5.63.85,1.65.57,3.21,1.46,4.68,2.69l-2.6,2.35c-1.36-.96-2.65-1.66-3.88-2.11s-2.5-.68-3.79-.68c-1.84,0-3.25.37-4.21,1.1-.97.73-1.45,1.83-1.45,3.29,0,.97.29,1.78.86,2.42.57.64,1.42,1.2,2.54,1.69l5.82,2.57c2.17.93,3.82,2.01,4.94,3.25,1.12,1.23,1.68,2.76,1.68,4.58,0,2.52-.93,4.41-2.8,5.66-1.86,1.25-4.69,1.88-8.48,1.88Z"/>
        <path class="cls-1" d="M244.7,122.77c-6.76,0-10.14-3.21-10.14-9.62v-19.49h3.85v19.49c0,2.14.51,3.75,1.54,4.83,1.03,1.08,2.64,1.62,4.84,1.62,4.26,0,6.39-2.15,6.39-6.45v-19.49h3.85v19.49c0,3.21-.88,5.61-2.63,7.22-1.75,1.6-4.32,2.41-7.7,2.41Z"/>
        <path class="cls-1" d="M287.55,96.09c-2.04-1.62-5-2.43-8.88-2.43h-9.44v28.71h3.85v-9.22h5.59c3.88,0,6.84-.85,8.88-2.57,2.04-1.71,3.06-4.2,3.06-7.46,0-3.07-1.02-5.42-3.06-7.04ZM284.65,108.22c-1.37,1.17-3.37,1.76-5.98,1.76h-5.59v-13.14h5.59c2.61,0,4.6.54,5.98,1.62s2.06,2.64,2.06,4.67c0,2.22-.69,3.92-2.06,5.09Z"/>
        <path class="cls-1" d="M321.36,96.09c-2.04-1.62-5-2.43-8.88-2.43h-9.44v28.71h3.85v-9.22h5.59c3.88,0,6.84-.85,8.88-2.57s3.06-4.2,3.06-7.46c0-3.07-1.02-5.42-3.06-7.04ZM318.46,108.22c-1.37,1.17-3.37,1.76-5.98,1.76h-5.59v-13.14h5.59c2.61,0,4.61.54,5.98,1.62,1.37,1.08,2.06,2.64,2.06,4.67,0,2.22-.69,3.92-2.06,5.09Z"/>
        <polygon class="cls-1" points="340.69 119.19 340.69 93.66 336.84 93.66 336.84 119.19 336.84 122.37 340.69 122.37 357.76 122.37 357.76 119.19 340.69 119.19"/>
        <polygon class="cls-1" points="390.53 93.66 386.39 93.66 377.85 108.72 377.53 108.72 369 93.66 364.85 93.66 375.77 112.08 375.77 122.37 379.62 122.37 379.62 112.08 390.53 93.66"/>
      </g>
    </g>
  </g>
</svg>