<svg width="137" height="117" viewBox="0 0 137 117" fill="none" xmlns="http://www.w3.org/2000/svg">
<path d="M133.575 80.3033H130.15V55.8827C130.15 53.0137 129.058 50.2577 127.132 48.2245L105.747 25.6563C103.82 23.6232 101.209 22.471 98.4902 22.471H89.05V11.6275C89.05 5.64094 84.4477 0.783936 78.775 0.783936H10.275C4.60234 0.783936 0 5.64094 0 11.6275V83.9179C0 89.9044 4.60234 94.7614 10.275 94.7614H13.7C13.7 106.734 22.9047 116.449 34.25 116.449C45.5953 116.449 54.8 106.734 54.8 94.7614H82.2C82.2 106.734 91.4047 116.449 102.75 116.449C114.095 116.449 123.3 106.734 123.3 94.7614H133.575C135.459 94.7614 137 93.1349 137 91.1469V83.9179C137 81.9299 135.459 80.3033 133.575 80.3033ZM34.25 105.605C28.5773 105.605 23.975 100.748 23.975 94.7614C23.975 88.7749 28.5773 83.9179 34.25 83.9179C39.9227 83.9179 44.525 88.7749 44.525 94.7614C44.525 100.748 39.9227 105.605 34.25 105.605ZM102.75 105.605C97.0773 105.605 92.475 100.748 92.475 94.7614C92.475 88.7749 97.0773 83.9179 102.75 83.9179C108.423 83.9179 113.025 88.7749 113.025 94.7614C113.025 100.748 108.423 105.605 102.75 105.605ZM119.875 58.6162H89.05V33.3146H98.4902L119.875 55.8827V58.6162Z" fill="white"/>
</svg>
